<?xml version="1.0" encoding="utf-8"?>
<!-- Generator: Adobe Illustrator 23.0.1, SVG Export Plug-In . SVG Version: 6.00 Build 0)  -->
<svg version="1.1" id="Layer_1" xmlns="http://www.w3.org/2000/svg" xmlns:xlink="http://www.w3.org/1999/xlink" x="0px" y="0px"
	 viewBox="0 0 792 612" style="enable-background:new 0 0 792 612;" xml:space="preserve">
<style type="text/css">
	.st0{fill:#FFFFFF;}
</style>
<g>
	<path class="st0" d="M508.4,142H285c-20,0-36.8,17.6-36.8,39.4c0,20.8,14.8,37.8,34,39.4v98.6c0,40.8,30.4,74.4,68.2,74.4h21.8
		v57.4H356c-5.6,0-10,4.6-10,9.6c0,5.6,4.6,10,10,10h79c5.6,0,10-4.6,10-10c0-5.2-4.6-9.6-10-9.6h-16.2v-57.4h24.6
		c37.4,0,68.2-33.6,68.2-74.4v-98.6c18.8-1.8,33.6-18.8,33.6-39.4C545.2,159.8,528.8,142,508.4,142z M508.4,204.8h-13.2v115
		c0,31.8-23.2,58.2-52,58.2h-92.8c-28.8,0-52-26.4-52-58.2v-115h-13.6c-11,0-20.4-10.4-20.4-23.2s9.4-23.2,20.4-23.2h223.4
		c11.4,0,20.4,10.4,20.4,23.2C528.8,194.4,519.8,204.8,508.4,204.8z"/>
</g>
</svg>
