<?xml version="1.0" encoding="utf-8"?>
<!-- Generator: Adobe Illustrator 23.0.1, SVG Export Plug-In . SVG Version: 6.00 Build 0)  -->
<svg version="1.1" id="Layer_1" xmlns="http://www.w3.org/2000/svg" xmlns:xlink="http://www.w3.org/1999/xlink" x="0px" y="0px"
	 viewBox="0 0 317.4 103.5" style="enable-background:new 0 0 317.4 103.5;" xml:space="preserve">
<style type="text/css">
	.st0{fill:none;stroke:#000000;stroke-width:2.0134;stroke-miterlimit:10;}
</style>
<g>
	<g>
		<path class="st0" d="M163.3,45.1L163.3,45.1c-8.7,8.7-22.9,8.7-31.6,0l0,0c-7.6-7.6-7.6-19.8,0-27.4l15.8-15.8l15.8,15.8
			C170.9,25.3,170.9,37.6,163.3,45.1z"/>
		<polyline class="st0" points="161.5,46.9 147.5,32.9 133.5,46.9 		"/>
		<polyline class="st0" points="166,42.5 147.5,24 129.1,42.5 		"/>
		<polyline class="st0" points="168.4,36.1 147.5,15.2 126.6,36.1 		"/>
		<line class="st0" x1="147.5" y1="1.9" x2="147.5" y2="15.1"/>
		<line class="st0" x1="147.5" y1="32.9" x2="147.5" y2="51.1"/>
	</g>
	<g>
		<path class="st0" d="M131.7,58.8L131.7,58.8c8.7-8.7,22.9-8.7,31.6,0l0,0c7.6,7.6,7.6,19.8,0,27.4L147.5,102l-15.8-15.8
			C124.1,78.6,124.1,66.4,131.7,58.8z"/>
		<polyline class="st0" points="133.5,57 147.5,71 161.5,57 		"/>
		<polyline class="st0" points="129.1,61.4 147.5,79.9 166,61.4 		"/>
		<polyline class="st0" points="126.6,67.8 147.5,88.7 168.4,67.8 		"/>
		<line class="st0" x1="147.5" y1="102" x2="147.5" y2="88.9"/>
		<line class="st0" x1="147.5" y1="71" x2="147.5" y2="52.8"/>
	</g>
	<g>
		<path class="st0" d="M154.3,67.8L154.3,67.8c-8.7-8.7-8.7-22.9,0-31.6l0,0c7.6-7.6,19.8-7.6,27.4,0L197.5,52l-15.8,15.8
			C174.2,75.3,161.9,75.3,154.3,67.8z"/>
		<polyline class="st0" points="152.5,66 166.6,52 152.5,38 		"/>
		<polyline class="st0" points="157,70.4 175.4,52 157,33.5 		"/>
		<polyline class="st0" points="163.4,72.9 184.2,52 163.3,31.1 		"/>
		<line class="st0" x1="197.5" y1="52" x2="184.4" y2="52"/>
		<line class="st0" x1="166.6" y1="52" x2="148.4" y2="52"/>
	</g>
	<g>
		<path class="st0" d="M140.7,36.1L140.7,36.1c8.7,8.7,8.7,22.9,0,31.6l0,0c-7.6,7.6-19.8,7.6-27.4,0L97.5,52l15.8-15.8
			C120.9,28.6,133.1,28.6,140.7,36.1z"/>
		<polyline class="st0" points="142.5,38 128.5,52 142.5,66 		"/>
		<polyline class="st0" points="138,33.5 119.6,52 138,70.4 		"/>
		<polyline class="st0" points="131.7,31.1 110.8,52 131.7,72.9 		"/>
		<line class="st0" x1="97.5" y1="52" x2="110.6" y2="52"/>
		<line class="st0" x1="128.5" y1="52" x2="146.7" y2="52"/>
	</g>
</g>
<g>
	<path d="M2.2,61H0V39.8h12.8v1.9H2.2v7.4h9.9V51H2.2V61z"/>
	<path d="M22.9,61h-2.2V39.8H27c1,0,2,0.1,2.9,0.3c0.9,0.2,1.7,0.5,2.3,1s1.1,1,1.5,1.8c0.4,0.7,0.5,1.6,0.5,2.6
		c0,0.8-0.1,1.5-0.4,2.1s-0.7,1.2-1.1,1.7s-1,0.9-1.7,1.1c-0.7,0.3-1.4,0.5-2.2,0.5L35,61h-2.6l-5.9-9.9h-3.6L22.9,61L22.9,61z
		 M22.9,49.2h3.8c1.7,0,3.1-0.3,4-1s1.4-1.6,1.4-2.8c0-0.7-0.1-1.3-0.4-1.8c-0.3-0.5-0.6-0.9-1.1-1.2c-0.5-0.3-1-0.5-1.7-0.7
		s-1.4-0.2-2.2-0.2h-3.8V49.2z"/>
	<path d="M44.8,59.1h11.4V61H42.6V39.8h13.2v1.9h-11V49h10.3v1.9H44.8V59.1z"/>
	<path d="M66.4,59.1h11.4V61H64.3V39.8h13.2v1.9h-11V49h10.3v1.9H66.4V59.1z"/>
</g>
<g>
	<path d="M226.3,43.2c-0.5-0.6-1-1.1-1.8-1.5s-1.6-0.6-2.6-0.6c-0.5,0-1,0.1-1.6,0.2s-1,0.4-1.5,0.7s-0.8,0.8-1.1,1.2
		c-0.3,0.5-0.4,1.1-0.4,1.8s0.1,1.2,0.4,1.7s0.6,0.8,1,1.1c0.4,0.3,0.9,0.6,1.5,0.8c0.5,0.2,1.1,0.4,1.7,0.6
		c0.7,0.2,1.5,0.5,2.2,0.8s1.4,0.6,2,1.1s1.1,1,1.5,1.7s0.6,1.6,0.6,2.6c0,1.1-0.2,2-0.6,2.8c-0.4,0.8-0.9,1.4-1.6,1.9
		s-1.4,0.9-2.2,1.1s-1.7,0.4-2.5,0.4c-0.6,0-1.3-0.1-1.9-0.2s-1.3-0.3-1.8-0.6s-1.1-0.6-1.6-1s-0.9-0.9-1.3-1.4l1.9-1.4
		c0.5,0.8,1.1,1.4,1.9,1.9s1.8,0.8,2.9,0.8c0.5,0,1.1-0.1,1.6-0.3s1.1-0.4,1.5-0.8c0.5-0.4,0.8-0.8,1.1-1.3c0.3-0.5,0.4-1.1,0.4-1.8
		c0-0.7-0.1-1.4-0.4-1.9c-0.3-0.5-0.7-0.9-1.2-1.2c-0.5-0.3-1-0.6-1.6-0.8c-0.6-0.2-1.3-0.4-2-0.7c-0.7-0.2-1.4-0.5-2.1-0.8
		s-1.3-0.6-1.8-1.1s-1-1-1.3-1.7s-0.5-1.5-0.5-2.4c0-1,0.2-1.9,0.6-2.6c0.4-0.7,1-1.4,1.6-1.8c0.7-0.5,1.4-0.8,2.2-1
		s1.6-0.3,2.4-0.3c1.4,0,2.7,0.3,3.7,0.8c1,0.5,1.8,1.1,2.3,1.8L226.3,43.2z"/>
	<path d="M236.9,39.8h6c1.1,0,2.1,0.1,2.9,0.4s1.6,0.6,2.3,1s1.1,1.1,1.5,1.8s0.5,1.5,0.5,2.5s-0.2,1.8-0.5,2.5
		c-0.4,0.7-0.8,1.3-1.5,1.8s-1.4,0.8-2.3,1.1c-0.9,0.2-1.9,0.4-3,0.4H239V61h-2.2L236.9,39.8L236.9,39.8z M239,49.3h3.7
		c1.7,0,3-0.3,3.9-1s1.3-1.6,1.3-2.9c0-1.3-0.5-2.3-1.4-2.9s-2.2-0.9-3.8-0.9H239L239,49.3L239,49.3z"/>
	<path d="M260.3,61h-2.2V39.8h2.2V61z"/>
	<path d="M272,61h-2.2V39.8h6.2c1,0,2,0.1,2.9,0.3c0.9,0.2,1.7,0.5,2.3,1c0.7,0.5,1.2,1,1.5,1.8s0.5,1.6,0.5,2.6
		c0,0.8-0.1,1.5-0.4,2.1c-0.3,0.6-0.7,1.2-1.1,1.7s-1,0.9-1.7,1.1c-0.7,0.3-1.4,0.5-2.2,0.5l6.2,10.1h-2.6l-5.9-9.9H272L272,61
		L272,61z M272,49.2h3.8c1.7,0,3.1-0.3,4-1s1.4-1.6,1.4-2.8c0-0.7-0.1-1.3-0.4-1.8c-0.3-0.5-0.6-0.9-1.1-1.2c-0.5-0.3-1-0.5-1.7-0.7
		c-0.7-0.1-1.4-0.2-2.2-0.2H272V49.2z"/>
	<path d="M293.9,61h-2.2V39.8h2.2V61z"/>
	<path d="M310.2,61h-2.2V41.7H301v-1.9h16.4v1.9h-7.1L310.2,61L310.2,61z"/>
</g>
<g>
	<path d="M60.6,80.4v8.4H58v-8.4h-3v-2.2h8.6v2.2H60.6z"/>
	<path d="M70.4,88.9l-2.3-4.2h-0.9v4.2h-2.5V78.2h4c0.5,0,1,0,1.5,0.2c0.5,0.1,0.9,0.3,1.3,0.5s0.7,0.6,0.9,1s0.3,0.9,0.3,1.5
		c0,0.7-0.2,1.3-0.6,1.8s-0.9,0.8-1.6,1l2.8,4.5H70.4z M70.3,81.5c0-0.3,0-0.5-0.2-0.6c-0.1-0.1-0.2-0.3-0.4-0.4
		c-0.2-0.1-0.4-0.1-0.6-0.2s-0.4,0-0.6,0h-1.4v2.5h1.2c0.2,0,0.4,0,0.6,0s0.4-0.1,0.6-0.2s0.3-0.2,0.4-0.4
		C70.2,82,70.3,81.8,70.3,81.5z"/>
	<path d="M81.9,88.9l-0.8-2.1h-4.1l-0.8,2.1h-2.8l4.5-10.6h2.5l4.4,10.6H81.9z M79,81.1l-1.4,3.6h2.7L79,81.1z"/>
	<path d="M90.4,88.9h-2.6l-4-10.6h2.9l2.5,7.5h0.1l2.5-7.5h2.8L90.4,88.9z"/>
	<path d="M95.4,88.9V78.2h7.1v2.2h-4.7v2h4.4v2.1h-4.4v2.2h4.9v2.2L95.4,88.9L95.4,88.9z"/>
	<path d="M104.5,88.9V78.2h2.6v8.4h4.1v2.2H104.5z"/>
</g>
<g>
	<path d="M192.7,88.9l-0.8-2.1h-4.1l-0.8,2.1h-2.8l4.5-10.6h2.5l4.4,10.6H192.7z M189.9,81.1l-1.4,3.6h2.7L189.9,81.1z"/>
	<path d="M203.8,88.9c-0.7,0.2-1.5,0.3-2.3,0.3c-0.9,0-1.6-0.1-2.4-0.4c-0.7-0.3-1.3-0.6-1.8-1.1c-0.5-0.5-0.9-1.1-1.2-1.8
		c-0.3-0.7-0.4-1.5-0.4-2.3c0-0.9,0.1-1.6,0.4-2.3s0.7-1.3,1.2-1.8s1.1-0.9,1.8-1.1c0.7-0.3,1.5-0.4,2.3-0.4c0.8,0,1.6,0.1,2.3,0.4
		s1.3,0.6,1.8,1l-1.6,1.8c-0.3-0.3-0.6-0.5-1-0.7c-0.4-0.2-0.9-0.3-1.4-0.3c-0.5,0-0.9,0.1-1.3,0.3s-0.7,0.4-1,0.7s-0.5,0.6-0.6,1
		c-0.2,0.4-0.2,0.9-0.2,1.3c0,0.5,0.1,0.9,0.2,1.4c0.1,0.4,0.4,0.8,0.6,1.1c0.3,0.3,0.6,0.5,1,0.7c0.4,0.2,0.9,0.3,1.4,0.3
		c0.3,0,0.6,0,0.9-0.1c0.3,0,0.5-0.1,0.8-0.2v-1.9h-2v-2.1h4.4v5.6C205.1,88.5,204.5,88.7,203.8,88.9z"/>
	<path d="M207.7,88.9V78.2h7.1v2.2h-4.7v2h4.4v2.1h-4.4v2.2h4.9v2.2L207.7,88.9L207.7,88.9z"/>
	<path d="M223.6,88.9l-4.3-7h0l0.1,7h-2.5V78.2h2.9l4.3,6.9h0l-0.1-6.9h2.5v10.6H223.6z"/>
	<path d="M236.3,88.7c-0.7,0.3-1.5,0.5-2.4,0.5c-0.8,0-1.6-0.1-2.3-0.4c-0.7-0.3-1.3-0.6-1.8-1.1s-0.9-1.1-1.2-1.8s-0.4-1.5-0.4-2.3
		c0-0.9,0.1-1.6,0.4-2.3s0.7-1.3,1.2-1.8c0.5-0.5,1.1-0.9,1.8-1.1c0.7-0.3,1.5-0.4,2.3-0.4c0.8,0,1.5,0.1,2.2,0.4
		c0.7,0.3,1.3,0.6,1.8,1.2l-1.7,1.7c-0.2-0.3-0.6-0.6-1-0.7s-0.8-0.2-1.2-0.2c-0.5,0-0.9,0.1-1.2,0.3c-0.4,0.2-0.7,0.4-1,0.7
		c-0.3,0.3-0.5,0.6-0.6,1c-0.1,0.4-0.2,0.8-0.2,1.3c0,0.5,0.1,0.9,0.2,1.3s0.4,0.7,0.6,1c0.3,0.3,0.6,0.5,1,0.7
		c0.4,0.2,0.8,0.2,1.2,0.2c0.5,0,1-0.1,1.3-0.3s0.7-0.5,0.9-0.8l1.8,1.7C237.5,87.9,237,88.4,236.3,88.7z"/>
	<path d="M244.1,84.4v4.5h-2.6v-4.5l-4-6.1h3.1l2.3,3.9l2.3-3.9h3L244.1,84.4z"/>
</g>
</svg>
