<?xml version="1.0" encoding="utf-8"?>
<!-- Generator: Adobe Illustrator 23.0.1, SVG Export Plug-In . SVG Version: 6.00 Build 0)  -->
<svg version="1.1" id="Layer_1" xmlns="http://www.w3.org/2000/svg" xmlns:xlink="http://www.w3.org/1999/xlink" x="0px" y="0px"
	 viewBox="0 0 792 612" style="enable-background:new 0 0 792 612;" xml:space="preserve">
<style type="text/css">
	.st0{fill:#FFFFFF;}
	.st1{clip-path:url(#SVGID_3_);fill:#FFFFFF;}
	.st2{clip-path:url(#SVGID_5_);fill:#FFFFFF;}
	.st3{clip-path:url(#SVGID_7_);fill:#FFFFFF;}
	.st4{clip-path:url(#SVGID_9_);fill:#FFFFFF;}
	.st5{clip-path:url(#SVGID_11_);fill:#FFFFFF;}
	.st6{clip-path:url(#SVGID_13_);fill:#FFFFFF;}
	.st7{clip-path:url(#SVGID_15_);fill:#FFFFFF;}
	.st8{clip-path:url(#SVGID_17_);fill:#FFFFFF;}
	.st9{clip-path:url(#SVGID_19_);fill:#FFFFFF;}
	.st10{clip-path:url(#SVGID_21_);fill:#FFFFFF;}
	.st11{clip-path:url(#SVGID_23_);fill:#FFFFFF;}
	.st12{clip-path:url(#SVGID_25_);fill:#FFFFFF;}
	.st13{clip-path:url(#SVGID_27_);fill:#FFFFFF;}
	.st14{clip-path:url(#SVGID_29_);fill:#FFFFFF;}
	.st15{clip-path:url(#SVGID_31_);fill:#FFFFFF;}
	.st16{clip-path:url(#SVGID_33_);fill:#FFFFFF;}
	.st17{clip-path:url(#SVGID_35_);fill:#FFFFFF;}
	.st18{clip-path:url(#SVGID_37_);fill:#FFFFFF;}
	.st19{clip-path:url(#SVGID_39_);fill:#FFFFFF;}
	.st20{clip-path:url(#SVGID_41_);fill:#FFFFFF;}
	.st21{clip-path:url(#SVGID_43_);fill:#FFFFFF;}
	.st22{clip-path:url(#SVGID_45_);fill:#FFFFFF;}
	.st23{clip-path:url(#SVGID_47_);fill:#FFFFFF;}
	.st24{clip-path:url(#SVGID_49_);fill:#FFFFFF;}
	.st25{clip-path:url(#SVGID_51_);fill:#FFFFFF;}
	.st26{clip-path:url(#SVGID_53_);fill:#FFFFFF;}
	.st27{clip-path:url(#SVGID_55_);fill:#FFFFFF;}
	.st28{clip-path:url(#SVGID_57_);fill:#FFFFFF;}
	.st29{clip-path:url(#SVGID_59_);fill:#FFFFFF;}
	.st30{clip-path:url(#SVGID_61_);fill:#FFFFFF;}
	.st31{clip-path:url(#SVGID_63_);fill:#FFFFFF;}
	.st32{clip-path:url(#SVGID_65_);fill:#FFFFFF;}
	.st33{clip-path:url(#SVGID_67_);fill:#FFFFFF;}
	.st34{clip-path:url(#SVGID_69_);fill:#FFFFFF;}
	.st35{clip-path:url(#SVGID_71_);fill:#FFFFFF;}
	.st36{clip-path:url(#SVGID_73_);fill:#FFFFFF;}
	.st37{clip-path:url(#SVGID_75_);fill:#FFFFFF;}
	.st38{clip-path:url(#SVGID_77_);fill:#FFFFFF;}
	.st39{clip-path:url(#SVGID_79_);fill:#FFFFFF;}
	.st40{clip-path:url(#SVGID_81_);fill:#FFFFFF;}
	.st41{clip-path:url(#SVGID_83_);fill:#FFFFFF;}
	.st42{clip-path:url(#SVGID_85_);fill:#FFFFFF;}
	.st43{clip-path:url(#SVGID_87_);fill:#FFFFFF;}
	.st44{clip-path:url(#SVGID_89_);fill:#FFFFFF;}
	.st45{clip-path:url(#SVGID_91_);fill:#FFFFFF;}
	.st46{clip-path:url(#SVGID_93_);fill:#FFFFFF;}
	.st47{clip-path:url(#SVGID_95_);fill:#FFFFFF;}
	.st48{clip-path:url(#SVGID_97_);fill:#FFFFFF;}
	.st49{clip-path:url(#SVGID_99_);fill:#FFFFFF;}
	.st50{clip-path:url(#SVGID_101_);fill:#FFFFFF;}
	.st51{clip-path:url(#SVGID_103_);fill:#FFFFFF;}
	.st52{clip-path:url(#SVGID_105_);fill:#FFFFFF;}
	.st53{clip-path:url(#SVGID_107_);fill:#FFFFFF;}
	.st54{clip-path:url(#SVGID_109_);fill:#FFFFFF;}
	.st55{clip-path:url(#SVGID_111_);fill:#FFFFFF;}
	.st56{clip-path:url(#SVGID_113_);fill:#FFFFFF;}
	.st57{clip-path:url(#SVGID_115_);fill:#FFFFFF;}
	.st58{clip-path:url(#SVGID_117_);fill:#FFFFFF;}
	.st59{clip-path:url(#SVGID_119_);fill:#FFFFFF;}
	.st60{clip-path:url(#SVGID_121_);fill:#FFFFFF;}
	.st61{clip-path:url(#SVGID_123_);fill:#FFFFFF;}
	.st62{clip-path:url(#SVGID_125_);fill:#FFFFFF;}
	.st63{clip-path:url(#SVGID_127_);fill:#FFFFFF;}
	.st64{clip-path:url(#SVGID_129_);fill:#FFFFFF;}
	.st65{clip-path:url(#SVGID_131_);fill:#FFFFFF;}
	.st66{clip-path:url(#SVGID_133_);fill:#FFFFFF;}
	.st67{clip-path:url(#SVGID_135_);fill:#FFFFFF;}
	.st68{clip-path:url(#SVGID_137_);fill:#FFFFFF;}
	.st69{clip-path:url(#SVGID_139_);fill:#FFFFFF;}
</style>
<g>
	<g>
		<g>
			<path id="SVGID_1_" class="st0" d="M370.2,186.6v-61.8c0-2.6,2-4.6,4.6-4.6h7.4c2.6,0,4.6,2,4.6,4.6v61.8c0,2.6-2,4.6-4.6,4.6
				h-7.4C372.2,191.2,370.2,189,370.2,186.6z"/>
		</g>
		<g>
			<defs>
				<path id="SVGID_2_" d="M370.2,186.6v-61.8c0-2.6,2-4.6,4.6-4.6h7.4c2.6,0,4.6,2,4.6,4.6v61.8c0,2.6-2,4.6-4.6,4.6h-7.4
					C372.2,191.2,370.2,189,370.2,186.6z"/>
			</defs>
			<use xlink:href="#SVGID_2_"  style="overflow:visible;fill:#FFFFFF;"/>
			<clipPath id="SVGID_3_">
				<use xlink:href="#SVGID_2_"  style="overflow:visible;"/>
			</clipPath>
			<polygon class="st1" points="386.8,123.4 384.6,120.2 386.8,120.2 			"/>
		</g>
		<g>
			<defs>
				<path id="SVGID_4_" d="M370.2,186.6v-61.8c0-2.6,2-4.6,4.6-4.6h7.4c2.6,0,4.6,2,4.6,4.6v61.8c0,2.6-2,4.6-4.6,4.6h-7.4
					C372.2,191.2,370.2,189,370.2,186.6z"/>
			</defs>
			<use xlink:href="#SVGID_4_"  style="overflow:visible;fill:#FFFFFF;"/>
			<clipPath id="SVGID_5_">
				<use xlink:href="#SVGID_4_"  style="overflow:visible;"/>
			</clipPath>
			<polygon class="st2" points="386.8,124.8 383.6,120.2 384.6,120.2 386.8,123.4 			"/>
		</g>
		<g>
			<defs>
				<path id="SVGID_6_" d="M370.2,186.6v-61.8c0-2.6,2-4.6,4.6-4.6h7.4c2.6,0,4.6,2,4.6,4.6v61.8c0,2.6-2,4.6-4.6,4.6h-7.4
					C372.2,191.2,370.2,189,370.2,186.6z"/>
			</defs>
			<use xlink:href="#SVGID_6_"  style="overflow:visible;fill:#FFFFFF;"/>
			<clipPath id="SVGID_7_">
				<use xlink:href="#SVGID_6_"  style="overflow:visible;"/>
			</clipPath>
			<polygon class="st3" points="386.8,126.2 382.8,120.2 383.6,120.2 386.8,124.8 			"/>
		</g>
		<g>
			<defs>
				<path id="SVGID_8_" d="M370.2,186.6v-61.8c0-2.6,2-4.6,4.6-4.6h7.4c2.6,0,4.6,2,4.6,4.6v61.8c0,2.6-2,4.6-4.6,4.6h-7.4
					C372.2,191.2,370.2,189,370.2,186.6z"/>
			</defs>
			<use xlink:href="#SVGID_8_"  style="overflow:visible;fill:#FFFFFF;"/>
			<clipPath id="SVGID_9_">
				<use xlink:href="#SVGID_8_"  style="overflow:visible;"/>
			</clipPath>
			<polygon class="st4" points="386.8,127.4 381.8,120.2 382.8,120.2 386.8,126.2 			"/>
		</g>
		<g>
			<defs>
				<path id="SVGID_10_" d="M370.2,186.6v-61.8c0-2.6,2-4.6,4.6-4.6h7.4c2.6,0,4.6,2,4.6,4.6v61.8c0,2.6-2,4.6-4.6,4.6h-7.4
					C372.2,191.2,370.2,189,370.2,186.6z"/>
			</defs>
			<use xlink:href="#SVGID_10_"  style="overflow:visible;fill:#FFFFFF;"/>
			<clipPath id="SVGID_11_">
				<use xlink:href="#SVGID_10_"  style="overflow:visible;"/>
			</clipPath>
			<polygon class="st5" points="386.8,128.8 381,120.2 381.8,120.2 386.8,127.4 			"/>
		</g>
		<g>
			<defs>
				<path id="SVGID_12_" d="M370.2,186.6v-61.8c0-2.6,2-4.6,4.6-4.6h7.4c2.6,0,4.6,2,4.6,4.6v61.8c0,2.6-2,4.6-4.6,4.6h-7.4
					C372.2,191.2,370.2,189,370.2,186.6z"/>
			</defs>
			<use xlink:href="#SVGID_12_"  style="overflow:visible;fill:#FFFFFF;"/>
			<clipPath id="SVGID_13_">
				<use xlink:href="#SVGID_12_"  style="overflow:visible;"/>
			</clipPath>
			<polygon class="st6" points="386.8,130.2 380,120.2 381,120.2 386.8,128.8 			"/>
		</g>
		<g>
			<defs>
				<path id="SVGID_14_" d="M370.2,186.6v-61.8c0-2.6,2-4.6,4.6-4.6h7.4c2.6,0,4.6,2,4.6,4.6v61.8c0,2.6-2,4.6-4.6,4.6h-7.4
					C372.2,191.2,370.2,189,370.2,186.6z"/>
			</defs>
			<use xlink:href="#SVGID_14_"  style="overflow:visible;fill:#FFFFFF;"/>
			<clipPath id="SVGID_15_">
				<use xlink:href="#SVGID_14_"  style="overflow:visible;"/>
			</clipPath>
			<polygon class="st7" points="386.8,131.4 379.2,120.2 380,120.2 386.8,130.2 			"/>
		</g>
		<g>
			<defs>
				<path id="SVGID_16_" d="M370.2,186.6v-61.8c0-2.6,2-4.6,4.6-4.6h7.4c2.6,0,4.6,2,4.6,4.6v61.8c0,2.6-2,4.6-4.6,4.6h-7.4
					C372.2,191.2,370.2,189,370.2,186.6z"/>
			</defs>
			<use xlink:href="#SVGID_16_"  style="overflow:visible;fill:#FFFFFF;"/>
			<clipPath id="SVGID_17_">
				<use xlink:href="#SVGID_16_"  style="overflow:visible;"/>
			</clipPath>
			<polygon class="st8" points="386.8,132.8 378.4,120.2 379.2,120.2 386.8,131.4 			"/>
		</g>
		<g>
			<defs>
				<path id="SVGID_18_" d="M370.2,186.6v-61.8c0-2.6,2-4.6,4.6-4.6h7.4c2.6,0,4.6,2,4.6,4.6v61.8c0,2.6-2,4.6-4.6,4.6h-7.4
					C372.2,191.2,370.2,189,370.2,186.6z"/>
			</defs>
			<use xlink:href="#SVGID_18_"  style="overflow:visible;fill:#FFFFFF;"/>
			<clipPath id="SVGID_19_">
				<use xlink:href="#SVGID_18_"  style="overflow:visible;"/>
			</clipPath>
			<polygon class="st9" points="386.8,134.2 377.4,120.2 378.4,120.2 386.8,132.8 			"/>
		</g>
		<g>
			<defs>
				<path id="SVGID_20_" d="M370.2,186.6v-61.8c0-2.6,2-4.6,4.6-4.6h7.4c2.6,0,4.6,2,4.6,4.6v61.8c0,2.6-2,4.6-4.6,4.6h-7.4
					C372.2,191.2,370.2,189,370.2,186.6z"/>
			</defs>
			<use xlink:href="#SVGID_20_"  style="overflow:visible;fill:#FFFFFF;"/>
			<clipPath id="SVGID_21_">
				<use xlink:href="#SVGID_20_"  style="overflow:visible;"/>
			</clipPath>
			<polygon class="st10" points="386.8,135.4 376.6,120.2 377.4,120.2 386.8,134.2 			"/>
		</g>
		<g>
			<defs>
				<path id="SVGID_22_" d="M370.2,186.6v-61.8c0-2.6,2-4.6,4.6-4.6h7.4c2.6,0,4.6,2,4.6,4.6v61.8c0,2.6-2,4.6-4.6,4.6h-7.4
					C372.2,191.2,370.2,189,370.2,186.6z"/>
			</defs>
			<use xlink:href="#SVGID_22_"  style="overflow:visible;fill:#FFFFFF;"/>
			<clipPath id="SVGID_23_">
				<use xlink:href="#SVGID_22_"  style="overflow:visible;"/>
			</clipPath>
			<polygon class="st11" points="386.8,136.8 375.6,120.2 376.6,120.2 386.8,135.4 			"/>
		</g>
		<g>
			<defs>
				<path id="SVGID_24_" d="M370.2,186.6v-61.8c0-2.6,2-4.6,4.6-4.6h7.4c2.6,0,4.6,2,4.6,4.6v61.8c0,2.6-2,4.6-4.6,4.6h-7.4
					C372.2,191.2,370.2,189,370.2,186.6z"/>
			</defs>
			<use xlink:href="#SVGID_24_"  style="overflow:visible;fill:#FFFFFF;"/>
			<clipPath id="SVGID_25_">
				<use xlink:href="#SVGID_24_"  style="overflow:visible;"/>
			</clipPath>
			<polygon class="st12" points="386.8,138.2 374.8,120.2 375.6,120.2 386.8,136.8 			"/>
		</g>
		<g>
			<defs>
				<path id="SVGID_26_" d="M370.2,186.6v-61.8c0-2.6,2-4.6,4.6-4.6h7.4c2.6,0,4.6,2,4.6,4.6v61.8c0,2.6-2,4.6-4.6,4.6h-7.4
					C372.2,191.2,370.2,189,370.2,186.6z"/>
			</defs>
			<use xlink:href="#SVGID_26_"  style="overflow:visible;fill:#FFFFFF;"/>
			<clipPath id="SVGID_27_">
				<use xlink:href="#SVGID_26_"  style="overflow:visible;"/>
			</clipPath>
			<polygon class="st13" points="386.8,139.4 373.8,120.2 374.8,120.2 386.8,138.2 			"/>
		</g>
		<g>
			<defs>
				<path id="SVGID_28_" d="M370.2,186.6v-61.8c0-2.6,2-4.6,4.6-4.6h7.4c2.6,0,4.6,2,4.6,4.6v61.8c0,2.6-2,4.6-4.6,4.6h-7.4
					C372.2,191.2,370.2,189,370.2,186.6z"/>
			</defs>
			<use xlink:href="#SVGID_28_"  style="overflow:visible;fill:#FFFFFF;"/>
			<clipPath id="SVGID_29_">
				<use xlink:href="#SVGID_28_"  style="overflow:visible;"/>
			</clipPath>
			<polygon class="st14" points="386.8,140.8 373,120.2 373.8,120.2 386.8,139.4 			"/>
		</g>
		<g>
			<defs>
				<path id="SVGID_30_" d="M370.2,186.6v-61.8c0-2.6,2-4.6,4.6-4.6h7.4c2.6,0,4.6,2,4.6,4.6v61.8c0,2.6-2,4.6-4.6,4.6h-7.4
					C372.2,191.2,370.2,189,370.2,186.6z"/>
			</defs>
			<use xlink:href="#SVGID_30_"  style="overflow:visible;fill:#FFFFFF;"/>
			<clipPath id="SVGID_31_">
				<use xlink:href="#SVGID_30_"  style="overflow:visible;"/>
			</clipPath>
			<polygon class="st15" points="386.8,142 372,120.2 373,120.2 386.8,140.8 			"/>
		</g>
		<g>
			<defs>
				<path id="SVGID_32_" d="M370.2,186.6v-61.8c0-2.6,2-4.6,4.6-4.6h7.4c2.6,0,4.6,2,4.6,4.6v61.8c0,2.6-2,4.6-4.6,4.6h-7.4
					C372.2,191.2,370.2,189,370.2,186.6z"/>
			</defs>
			<use xlink:href="#SVGID_32_"  style="overflow:visible;fill:#FFFFFF;"/>
			<clipPath id="SVGID_33_">
				<use xlink:href="#SVGID_32_"  style="overflow:visible;"/>
			</clipPath>
			<polygon class="st16" points="386.8,143.4 371.2,120.2 372,120.2 386.8,142 			"/>
		</g>
		<g>
			<defs>
				<path id="SVGID_34_" d="M370.2,186.6v-61.8c0-2.6,2-4.6,4.6-4.6h7.4c2.6,0,4.6,2,4.6,4.6v61.8c0,2.6-2,4.6-4.6,4.6h-7.4
					C372.2,191.2,370.2,189,370.2,186.6z"/>
			</defs>
			<use xlink:href="#SVGID_34_"  style="overflow:visible;fill:#FFFFFF;"/>
			<clipPath id="SVGID_35_">
				<use xlink:href="#SVGID_34_"  style="overflow:visible;"/>
			</clipPath>
			<polygon class="st17" points="386.8,144.8 370.2,120.2 371.2,120.2 386.8,143.4 			"/>
		</g>
		<g>
			<defs>
				<path id="SVGID_36_" d="M370.2,186.6v-61.8c0-2.6,2-4.6,4.6-4.6h7.4c2.6,0,4.6,2,4.6,4.6v61.8c0,2.6-2,4.6-4.6,4.6h-7.4
					C372.2,191.2,370.2,189,370.2,186.6z"/>
			</defs>
			<use xlink:href="#SVGID_36_"  style="overflow:visible;fill:#FFFFFF;"/>
			<clipPath id="SVGID_37_">
				<use xlink:href="#SVGID_36_"  style="overflow:visible;"/>
			</clipPath>
			<polygon class="st18" points="386.8,146 370.2,121.6 370.2,120.2 370.2,120.2 386.8,144.8 			"/>
		</g>
		<g>
			<defs>
				<path id="SVGID_38_" d="M370.2,186.6v-61.8c0-2.6,2-4.6,4.6-4.6h7.4c2.6,0,4.6,2,4.6,4.6v61.8c0,2.6-2,4.6-4.6,4.6h-7.4
					C372.2,191.2,370.2,189,370.2,186.6z"/>
			</defs>
			<use xlink:href="#SVGID_38_"  style="overflow:visible;fill:#FFFFFF;"/>
			<clipPath id="SVGID_39_">
				<use xlink:href="#SVGID_38_"  style="overflow:visible;"/>
			</clipPath>
			<polygon class="st19" points="386.8,147.4 370.2,122.8 370.2,121.6 386.8,146 			"/>
		</g>
		<g>
			<defs>
				<path id="SVGID_40_" d="M370.2,186.6v-61.8c0-2.6,2-4.6,4.6-4.6h7.4c2.6,0,4.6,2,4.6,4.6v61.8c0,2.6-2,4.6-4.6,4.6h-7.4
					C372.2,191.2,370.2,189,370.2,186.6z"/>
			</defs>
			<use xlink:href="#SVGID_40_"  style="overflow:visible;fill:#FFFFFF;"/>
			<clipPath id="SVGID_41_">
				<use xlink:href="#SVGID_40_"  style="overflow:visible;"/>
			</clipPath>
			<polygon class="st20" points="386.8,148.8 370.2,124.2 370.2,122.8 386.8,147.4 			"/>
		</g>
		<g>
			<defs>
				<path id="SVGID_42_" d="M370.2,186.6v-61.8c0-2.6,2-4.6,4.6-4.6h7.4c2.6,0,4.6,2,4.6,4.6v61.8c0,2.6-2,4.6-4.6,4.6h-7.4
					C372.2,191.2,370.2,189,370.2,186.6z"/>
			</defs>
			<use xlink:href="#SVGID_42_"  style="overflow:visible;fill:#FFFFFF;"/>
			<clipPath id="SVGID_43_">
				<use xlink:href="#SVGID_42_"  style="overflow:visible;"/>
			</clipPath>
			<polygon class="st21" points="386.8,150 370.2,125.6 370.2,124.2 386.8,148.8 			"/>
		</g>
		<g>
			<defs>
				<path id="SVGID_44_" d="M370.2,186.6v-61.8c0-2.6,2-4.6,4.6-4.6h7.4c2.6,0,4.6,2,4.6,4.6v61.8c0,2.6-2,4.6-4.6,4.6h-7.4
					C372.2,191.2,370.2,189,370.2,186.6z"/>
			</defs>
			<use xlink:href="#SVGID_44_"  style="overflow:visible;fill:#FFFFFF;"/>
			<clipPath id="SVGID_45_">
				<use xlink:href="#SVGID_44_"  style="overflow:visible;"/>
			</clipPath>
			<polygon class="st22" points="386.8,151.4 370.2,126.8 370.2,125.6 386.8,150 			"/>
		</g>
		<g>
			<defs>
				<path id="SVGID_46_" d="M370.2,186.6v-61.8c0-2.6,2-4.6,4.6-4.6h7.4c2.6,0,4.6,2,4.6,4.6v61.8c0,2.6-2,4.6-4.6,4.6h-7.4
					C372.2,191.2,370.2,189,370.2,186.6z"/>
			</defs>
			<use xlink:href="#SVGID_46_"  style="overflow:visible;fill:#FFFFFF;"/>
			<clipPath id="SVGID_47_">
				<use xlink:href="#SVGID_46_"  style="overflow:visible;"/>
			</clipPath>
			<polygon class="st23" points="386.8,152.8 370.2,128.2 370.2,126.8 386.8,151.4 			"/>
		</g>
		<g>
			<defs>
				<path id="SVGID_48_" d="M370.2,186.6v-61.8c0-2.6,2-4.6,4.6-4.6h7.4c2.6,0,4.6,2,4.6,4.6v61.8c0,2.6-2,4.6-4.6,4.6h-7.4
					C372.2,191.2,370.2,189,370.2,186.6z"/>
			</defs>
			<use xlink:href="#SVGID_48_"  style="overflow:visible;fill:#FFFFFF;"/>
			<clipPath id="SVGID_49_">
				<use xlink:href="#SVGID_48_"  style="overflow:visible;"/>
			</clipPath>
			<polygon class="st24" points="386.8,154 370.2,129.4 370.2,128.2 386.8,152.8 			"/>
		</g>
		<g>
			<defs>
				<path id="SVGID_50_" d="M370.2,186.6v-61.8c0-2.6,2-4.6,4.6-4.6h7.4c2.6,0,4.6,2,4.6,4.6v61.8c0,2.6-2,4.6-4.6,4.6h-7.4
					C372.2,191.2,370.2,189,370.2,186.6z"/>
			</defs>
			<use xlink:href="#SVGID_50_"  style="overflow:visible;fill:#FFFFFF;"/>
			<clipPath id="SVGID_51_">
				<use xlink:href="#SVGID_50_"  style="overflow:visible;"/>
			</clipPath>
			<polygon class="st25" points="386.8,155.4 370.2,130.8 370.2,129.4 386.8,154 			"/>
		</g>
		<g>
			<defs>
				<path id="SVGID_52_" d="M370.2,186.6v-61.8c0-2.6,2-4.6,4.6-4.6h7.4c2.6,0,4.6,2,4.6,4.6v61.8c0,2.6-2,4.6-4.6,4.6h-7.4
					C372.2,191.2,370.2,189,370.2,186.6z"/>
			</defs>
			<use xlink:href="#SVGID_52_"  style="overflow:visible;fill:#FFFFFF;"/>
			<clipPath id="SVGID_53_">
				<use xlink:href="#SVGID_52_"  style="overflow:visible;"/>
			</clipPath>
			<polygon class="st26" points="386.8,156.8 370.2,132.2 370.2,130.8 386.8,155.4 			"/>
		</g>
		<g>
			<defs>
				<path id="SVGID_54_" d="M370.2,186.6v-61.8c0-2.6,2-4.6,4.6-4.6h7.4c2.6,0,4.6,2,4.6,4.6v61.8c0,2.6-2,4.6-4.6,4.6h-7.4
					C372.2,191.2,370.2,189,370.2,186.6z"/>
			</defs>
			<use xlink:href="#SVGID_54_"  style="overflow:visible;fill:#FFFFFF;"/>
			<clipPath id="SVGID_55_">
				<use xlink:href="#SVGID_54_"  style="overflow:visible;"/>
			</clipPath>
			<polygon class="st27" points="386.8,158 370.2,133.4 370.2,132.2 386.8,156.8 			"/>
		</g>
		<g>
			<defs>
				<path id="SVGID_56_" d="M370.2,186.6v-61.8c0-2.6,2-4.6,4.6-4.6h7.4c2.6,0,4.6,2,4.6,4.6v61.8c0,2.6-2,4.6-4.6,4.6h-7.4
					C372.2,191.2,370.2,189,370.2,186.6z"/>
			</defs>
			<use xlink:href="#SVGID_56_"  style="overflow:visible;fill:#FFFFFF;"/>
			<clipPath id="SVGID_57_">
				<use xlink:href="#SVGID_56_"  style="overflow:visible;"/>
			</clipPath>
			<polygon class="st28" points="386.8,159.4 370.2,134.8 370.2,133.4 386.8,158 			"/>
		</g>
		<g>
			<defs>
				<path id="SVGID_58_" d="M370.2,186.6v-61.8c0-2.6,2-4.6,4.6-4.6h7.4c2.6,0,4.6,2,4.6,4.6v61.8c0,2.6-2,4.6-4.6,4.6h-7.4
					C372.2,191.2,370.2,189,370.2,186.6z"/>
			</defs>
			<use xlink:href="#SVGID_58_"  style="overflow:visible;fill:#FFFFFF;"/>
			<clipPath id="SVGID_59_">
				<use xlink:href="#SVGID_58_"  style="overflow:visible;"/>
			</clipPath>
			<polygon class="st29" points="386.8,160.6 370.2,136.2 370.2,134.8 386.8,159.4 			"/>
		</g>
		<g>
			<defs>
				<path id="SVGID_60_" d="M370.2,186.6v-61.8c0-2.6,2-4.6,4.6-4.6h7.4c2.6,0,4.6,2,4.6,4.6v61.8c0,2.6-2,4.6-4.6,4.6h-7.4
					C372.2,191.2,370.2,189,370.2,186.6z"/>
			</defs>
			<use xlink:href="#SVGID_60_"  style="overflow:visible;fill:#FFFFFF;"/>
			<clipPath id="SVGID_61_">
				<use xlink:href="#SVGID_60_"  style="overflow:visible;"/>
			</clipPath>
			<polygon class="st30" points="386.8,162 370.2,137.4 370.2,136.2 386.8,160.6 			"/>
		</g>
		<g>
			<defs>
				<path id="SVGID_62_" d="M370.2,186.6v-61.8c0-2.6,2-4.6,4.6-4.6h7.4c2.6,0,4.6,2,4.6,4.6v61.8c0,2.6-2,4.6-4.6,4.6h-7.4
					C372.2,191.2,370.2,189,370.2,186.6z"/>
			</defs>
			<use xlink:href="#SVGID_62_"  style="overflow:visible;fill:#FFFFFF;"/>
			<clipPath id="SVGID_63_">
				<use xlink:href="#SVGID_62_"  style="overflow:visible;"/>
			</clipPath>
			<polygon class="st31" points="386.8,163.4 370.2,138.8 370.2,137.4 386.8,162 			"/>
		</g>
		<g>
			<defs>
				<path id="SVGID_64_" d="M370.2,186.6v-61.8c0-2.6,2-4.6,4.6-4.6h7.4c2.6,0,4.6,2,4.6,4.6v61.8c0,2.6-2,4.6-4.6,4.6h-7.4
					C372.2,191.2,370.2,189,370.2,186.6z"/>
			</defs>
			<use xlink:href="#SVGID_64_"  style="overflow:visible;fill:#FFFFFF;"/>
			<clipPath id="SVGID_65_">
				<use xlink:href="#SVGID_64_"  style="overflow:visible;"/>
			</clipPath>
			<polygon class="st32" points="386.8,164.6 370.2,140.2 370.2,138.8 386.8,163.4 			"/>
		</g>
		<g>
			<defs>
				<path id="SVGID_66_" d="M370.2,186.6v-61.8c0-2.6,2-4.6,4.6-4.6h7.4c2.6,0,4.6,2,4.6,4.6v61.8c0,2.6-2,4.6-4.6,4.6h-7.4
					C372.2,191.2,370.2,189,370.2,186.6z"/>
			</defs>
			<use xlink:href="#SVGID_66_"  style="overflow:visible;fill:#FFFFFF;"/>
			<clipPath id="SVGID_67_">
				<use xlink:href="#SVGID_66_"  style="overflow:visible;"/>
			</clipPath>
			<polygon class="st33" points="386.8,166 370.2,141.4 370.2,140.2 386.8,164.6 			"/>
		</g>
		<g>
			<defs>
				<path id="SVGID_68_" d="M370.2,186.6v-61.8c0-2.6,2-4.6,4.6-4.6h7.4c2.6,0,4.6,2,4.6,4.6v61.8c0,2.6-2,4.6-4.6,4.6h-7.4
					C372.2,191.2,370.2,189,370.2,186.6z"/>
			</defs>
			<use xlink:href="#SVGID_68_"  style="overflow:visible;fill:#FFFFFF;"/>
			<clipPath id="SVGID_69_">
				<use xlink:href="#SVGID_68_"  style="overflow:visible;"/>
			</clipPath>
			<polygon class="st34" points="386.8,167.4 370.2,142.8 370.2,141.4 386.8,166 			"/>
		</g>
		<g>
			<defs>
				<path id="SVGID_70_" d="M370.2,186.6v-61.8c0-2.6,2-4.6,4.6-4.6h7.4c2.6,0,4.6,2,4.6,4.6v61.8c0,2.6-2,4.6-4.6,4.6h-7.4
					C372.2,191.2,370.2,189,370.2,186.6z"/>
			</defs>
			<use xlink:href="#SVGID_70_"  style="overflow:visible;fill:#FFFFFF;"/>
			<clipPath id="SVGID_71_">
				<use xlink:href="#SVGID_70_"  style="overflow:visible;"/>
			</clipPath>
			<polygon class="st35" points="386.8,168.6 370.2,144.2 370.2,142.8 386.8,167.4 			"/>
		</g>
		<g>
			<defs>
				<path id="SVGID_72_" d="M370.2,186.6v-61.8c0-2.6,2-4.6,4.6-4.6h7.4c2.6,0,4.6,2,4.6,4.6v61.8c0,2.6-2,4.6-4.6,4.6h-7.4
					C372.2,191.2,370.2,189,370.2,186.6z"/>
			</defs>
			<use xlink:href="#SVGID_72_"  style="overflow:visible;fill:#FFFFFF;"/>
			<clipPath id="SVGID_73_">
				<use xlink:href="#SVGID_72_"  style="overflow:visible;"/>
			</clipPath>
			<polygon class="st36" points="386.8,170 370.2,145.4 370.2,144.2 386.8,168.6 			"/>
		</g>
		<g>
			<defs>
				<path id="SVGID_74_" d="M370.2,186.6v-61.8c0-2.6,2-4.6,4.6-4.6h7.4c2.6,0,4.6,2,4.6,4.6v61.8c0,2.6-2,4.6-4.6,4.6h-7.4
					C372.2,191.2,370.2,189,370.2,186.6z"/>
			</defs>
			<use xlink:href="#SVGID_74_"  style="overflow:visible;fill:#FFFFFF;"/>
			<clipPath id="SVGID_75_">
				<use xlink:href="#SVGID_74_"  style="overflow:visible;"/>
			</clipPath>
			<polygon class="st37" points="386.8,171.4 370.2,146.8 370.2,145.4 386.8,170 			"/>
		</g>
		<g>
			<defs>
				<path id="SVGID_76_" d="M370.2,186.6v-61.8c0-2.6,2-4.6,4.6-4.6h7.4c2.6,0,4.6,2,4.6,4.6v61.8c0,2.6-2,4.6-4.6,4.6h-7.4
					C372.2,191.2,370.2,189,370.2,186.6z"/>
			</defs>
			<use xlink:href="#SVGID_76_"  style="overflow:visible;fill:#FFFFFF;"/>
			<clipPath id="SVGID_77_">
				<use xlink:href="#SVGID_76_"  style="overflow:visible;"/>
			</clipPath>
			<polygon class="st38" points="386.8,172.6 370.2,148 370.2,146.8 386.8,171.4 			"/>
		</g>
		<g>
			<defs>
				<path id="SVGID_78_" d="M370.2,186.6v-61.8c0-2.6,2-4.6,4.6-4.6h7.4c2.6,0,4.6,2,4.6,4.6v61.8c0,2.6-2,4.6-4.6,4.6h-7.4
					C372.2,191.2,370.2,189,370.2,186.6z"/>
			</defs>
			<use xlink:href="#SVGID_78_"  style="overflow:visible;fill:#FFFFFF;"/>
			<clipPath id="SVGID_79_">
				<use xlink:href="#SVGID_78_"  style="overflow:visible;"/>
			</clipPath>
			<polygon class="st39" points="386.8,174 370.2,149.4 370.2,148 386.8,172.6 			"/>
		</g>
		<g>
			<defs>
				<path id="SVGID_80_" d="M370.2,186.6v-61.8c0-2.6,2-4.6,4.6-4.6h7.4c2.6,0,4.6,2,4.6,4.6v61.8c0,2.6-2,4.6-4.6,4.6h-7.4
					C372.2,191.2,370.2,189,370.2,186.6z"/>
			</defs>
			<use xlink:href="#SVGID_80_"  style="overflow:visible;fill:#FFFFFF;"/>
			<clipPath id="SVGID_81_">
				<use xlink:href="#SVGID_80_"  style="overflow:visible;"/>
			</clipPath>
			<polygon class="st40" points="386.8,175.4 370.2,150.8 370.2,149.4 386.8,174 			"/>
		</g>
		<g>
			<defs>
				<path id="SVGID_82_" d="M370.2,186.6v-61.8c0-2.6,2-4.6,4.6-4.6h7.4c2.6,0,4.6,2,4.6,4.6v61.8c0,2.6-2,4.6-4.6,4.6h-7.4
					C372.2,191.2,370.2,189,370.2,186.6z"/>
			</defs>
			<use xlink:href="#SVGID_82_"  style="overflow:visible;fill:#FFFFFF;"/>
			<clipPath id="SVGID_83_">
				<use xlink:href="#SVGID_82_"  style="overflow:visible;"/>
			</clipPath>
			<polygon class="st41" points="386.8,176.6 370.2,152 370.2,150.8 386.8,175.4 			"/>
		</g>
		<g>
			<defs>
				<path id="SVGID_84_" d="M370.2,186.6v-61.8c0-2.6,2-4.6,4.6-4.6h7.4c2.6,0,4.6,2,4.6,4.6v61.8c0,2.6-2,4.6-4.6,4.6h-7.4
					C372.2,191.2,370.2,189,370.2,186.6z"/>
			</defs>
			<use xlink:href="#SVGID_84_"  style="overflow:visible;fill:#FFFFFF;"/>
			<clipPath id="SVGID_85_">
				<use xlink:href="#SVGID_84_"  style="overflow:visible;"/>
			</clipPath>
			<polygon class="st42" points="386.8,178 370.2,153.4 370.2,152 386.8,176.6 			"/>
		</g>
		<g>
			<defs>
				<path id="SVGID_86_" d="M370.2,186.6v-61.8c0-2.6,2-4.6,4.6-4.6h7.4c2.6,0,4.6,2,4.6,4.6v61.8c0,2.6-2,4.6-4.6,4.6h-7.4
					C372.2,191.2,370.2,189,370.2,186.6z"/>
			</defs>
			<use xlink:href="#SVGID_86_"  style="overflow:visible;fill:#FFFFFF;"/>
			<clipPath id="SVGID_87_">
				<use xlink:href="#SVGID_86_"  style="overflow:visible;"/>
			</clipPath>
			<polygon class="st43" points="386.8,179.4 370.2,154.8 370.2,153.4 386.8,178 			"/>
		</g>
		<g>
			<defs>
				<path id="SVGID_88_" d="M370.2,186.6v-61.8c0-2.6,2-4.6,4.6-4.6h7.4c2.6,0,4.6,2,4.6,4.6v61.8c0,2.6-2,4.6-4.6,4.6h-7.4
					C372.2,191.2,370.2,189,370.2,186.6z"/>
			</defs>
			<use xlink:href="#SVGID_88_"  style="overflow:visible;fill:#FFFFFF;"/>
			<clipPath id="SVGID_89_">
				<use xlink:href="#SVGID_88_"  style="overflow:visible;"/>
			</clipPath>
			<polygon class="st44" points="386.8,180.6 370.2,156 370.2,154.8 386.8,179.4 			"/>
		</g>
		<g>
			<defs>
				<path id="SVGID_90_" d="M370.2,186.6v-61.8c0-2.6,2-4.6,4.6-4.6h7.4c2.6,0,4.6,2,4.6,4.6v61.8c0,2.6-2,4.6-4.6,4.6h-7.4
					C372.2,191.2,370.2,189,370.2,186.6z"/>
			</defs>
			<use xlink:href="#SVGID_90_"  style="overflow:visible;fill:#FFFFFF;"/>
			<clipPath id="SVGID_91_">
				<use xlink:href="#SVGID_90_"  style="overflow:visible;"/>
			</clipPath>
			<polygon class="st45" points="386.8,182 370.2,157.4 370.2,156 386.8,180.6 			"/>
		</g>
		<g>
			<defs>
				<path id="SVGID_92_" d="M370.2,186.6v-61.8c0-2.6,2-4.6,4.6-4.6h7.4c2.6,0,4.6,2,4.6,4.6v61.8c0,2.6-2,4.6-4.6,4.6h-7.4
					C372.2,191.2,370.2,189,370.2,186.6z"/>
			</defs>
			<use xlink:href="#SVGID_92_"  style="overflow:visible;fill:#FFFFFF;"/>
			<clipPath id="SVGID_93_">
				<use xlink:href="#SVGID_92_"  style="overflow:visible;"/>
			</clipPath>
			<polygon class="st46" points="386.8,183.2 370.2,158.8 370.2,157.4 386.8,182 			"/>
		</g>
		<g>
			<defs>
				<path id="SVGID_94_" d="M370.2,186.6v-61.8c0-2.6,2-4.6,4.6-4.6h7.4c2.6,0,4.6,2,4.6,4.6v61.8c0,2.6-2,4.6-4.6,4.6h-7.4
					C372.2,191.2,370.2,189,370.2,186.6z"/>
			</defs>
			<use xlink:href="#SVGID_94_"  style="overflow:visible;fill:#FFFFFF;"/>
			<clipPath id="SVGID_95_">
				<use xlink:href="#SVGID_94_"  style="overflow:visible;"/>
			</clipPath>
			<polygon class="st47" points="386.8,184.6 370.2,160 370.2,158.8 386.8,183.2 			"/>
		</g>
		<g>
			<defs>
				<path id="SVGID_96_" d="M370.2,186.6v-61.8c0-2.6,2-4.6,4.6-4.6h7.4c2.6,0,4.6,2,4.6,4.6v61.8c0,2.6-2,4.6-4.6,4.6h-7.4
					C372.2,191.2,370.2,189,370.2,186.6z"/>
			</defs>
			<use xlink:href="#SVGID_96_"  style="overflow:visible;fill:#FFFFFF;"/>
			<clipPath id="SVGID_97_">
				<use xlink:href="#SVGID_96_"  style="overflow:visible;"/>
			</clipPath>
			<polygon class="st48" points="386.8,186 370.2,161.4 370.2,160 386.8,184.6 			"/>
		</g>
		<g>
			<defs>
				<path id="SVGID_98_" d="M370.2,186.6v-61.8c0-2.6,2-4.6,4.6-4.6h7.4c2.6,0,4.6,2,4.6,4.6v61.8c0,2.6-2,4.6-4.6,4.6h-7.4
					C372.2,191.2,370.2,189,370.2,186.6z"/>
			</defs>
			<use xlink:href="#SVGID_98_"  style="overflow:visible;fill:#FFFFFF;"/>
			<clipPath id="SVGID_99_">
				<use xlink:href="#SVGID_98_"  style="overflow:visible;"/>
			</clipPath>
			<polygon class="st49" points="386.8,187.2 370.2,162.8 370.2,161.4 386.8,186 			"/>
		</g>
		<g>
			<defs>
				<path id="SVGID_100_" d="M370.2,186.6v-61.8c0-2.6,2-4.6,4.6-4.6h7.4c2.6,0,4.6,2,4.6,4.6v61.8c0,2.6-2,4.6-4.6,4.6h-7.4
					C372.2,191.2,370.2,189,370.2,186.6z"/>
			</defs>
			<use xlink:href="#SVGID_100_"  style="overflow:visible;fill:#FFFFFF;"/>
			<clipPath id="SVGID_101_">
				<use xlink:href="#SVGID_100_"  style="overflow:visible;"/>
			</clipPath>
			<polygon class="st50" points="386.8,188.6 370.2,164 370.2,162.8 386.8,187.2 			"/>
		</g>
		<g>
			<defs>
				<path id="SVGID_102_" d="M370.2,186.6v-61.8c0-2.6,2-4.6,4.6-4.6h7.4c2.6,0,4.6,2,4.6,4.6v61.8c0,2.6-2,4.6-4.6,4.6h-7.4
					C372.2,191.2,370.2,189,370.2,186.6z"/>
			</defs>
			<use xlink:href="#SVGID_102_"  style="overflow:visible;fill:#FFFFFF;"/>
			<clipPath id="SVGID_103_">
				<use xlink:href="#SVGID_102_"  style="overflow:visible;"/>
			</clipPath>
			<polygon class="st51" points="386.8,190 370.2,165.4 370.2,164 386.8,188.6 			"/>
		</g>
		<g>
			<defs>
				<path id="SVGID_104_" d="M370.2,186.6v-61.8c0-2.6,2-4.6,4.6-4.6h7.4c2.6,0,4.6,2,4.6,4.6v61.8c0,2.6-2,4.6-4.6,4.6h-7.4
					C372.2,191.2,370.2,189,370.2,186.6z"/>
			</defs>
			<use xlink:href="#SVGID_104_"  style="overflow:visible;fill:#FFFFFF;"/>
			<clipPath id="SVGID_105_">
				<use xlink:href="#SVGID_104_"  style="overflow:visible;"/>
			</clipPath>
			<polygon class="st52" points="386.6,191.2 370.2,166.8 370.2,165.4 386.8,190 386.8,191.2 			"/>
		</g>
		<g>
			<defs>
				<path id="SVGID_106_" d="M370.2,186.6v-61.8c0-2.6,2-4.6,4.6-4.6h7.4c2.6,0,4.6,2,4.6,4.6v61.8c0,2.6-2,4.6-4.6,4.6h-7.4
					C372.2,191.2,370.2,189,370.2,186.6z"/>
			</defs>
			<use xlink:href="#SVGID_106_"  style="overflow:visible;fill:#FFFFFF;"/>
			<clipPath id="SVGID_107_">
				<use xlink:href="#SVGID_106_"  style="overflow:visible;"/>
			</clipPath>
			<polygon class="st53" points="385.8,191.2 370.2,168 370.2,166.8 386.6,191.2 			"/>
		</g>
		<g>
			<defs>
				<path id="SVGID_108_" d="M370.2,186.6v-61.8c0-2.6,2-4.6,4.6-4.6h7.4c2.6,0,4.6,2,4.6,4.6v61.8c0,2.6-2,4.6-4.6,4.6h-7.4
					C372.2,191.2,370.2,189,370.2,186.6z"/>
			</defs>
			<use xlink:href="#SVGID_108_"  style="overflow:visible;fill:#FFFFFF;"/>
			<clipPath id="SVGID_109_">
				<use xlink:href="#SVGID_108_"  style="overflow:visible;"/>
			</clipPath>
			<polygon class="st54" points="384.8,191.2 370.2,169.4 370.2,168 385.8,191.2 			"/>
		</g>
		<g>
			<defs>
				<path id="SVGID_110_" d="M370.2,186.6v-61.8c0-2.6,2-4.6,4.6-4.6h7.4c2.6,0,4.6,2,4.6,4.6v61.8c0,2.6-2,4.6-4.6,4.6h-7.4
					C372.2,191.2,370.2,189,370.2,186.6z"/>
			</defs>
			<use xlink:href="#SVGID_110_"  style="overflow:visible;fill:#FFFFFF;"/>
			<clipPath id="SVGID_111_">
				<use xlink:href="#SVGID_110_"  style="overflow:visible;"/>
			</clipPath>
			<polygon class="st55" points="384,191.2 370.2,170.6 370.2,169.4 384.8,191.2 			"/>
		</g>
		<g>
			<defs>
				<path id="SVGID_112_" d="M370.2,186.6v-61.8c0-2.6,2-4.6,4.6-4.6h7.4c2.6,0,4.6,2,4.6,4.6v61.8c0,2.6-2,4.6-4.6,4.6h-7.4
					C372.2,191.2,370.2,189,370.2,186.6z"/>
			</defs>
			<use xlink:href="#SVGID_112_"  style="overflow:visible;fill:#FFFFFF;"/>
			<clipPath id="SVGID_113_">
				<use xlink:href="#SVGID_112_"  style="overflow:visible;"/>
			</clipPath>
			<polygon class="st56" points="383,191.2 370.2,172 370.2,170.6 384,191.2 			"/>
		</g>
		<g>
			<defs>
				<path id="SVGID_114_" d="M370.2,186.6v-61.8c0-2.6,2-4.6,4.6-4.6h7.4c2.6,0,4.6,2,4.6,4.6v61.8c0,2.6-2,4.6-4.6,4.6h-7.4
					C372.2,191.2,370.2,189,370.2,186.6z"/>
			</defs>
			<use xlink:href="#SVGID_114_"  style="overflow:visible;fill:#FFFFFF;"/>
			<clipPath id="SVGID_115_">
				<use xlink:href="#SVGID_114_"  style="overflow:visible;"/>
			</clipPath>
			<polygon class="st57" points="382.2,191.2 370.2,173.4 370.2,172 383,191.2 			"/>
		</g>
		<g>
			<defs>
				<path id="SVGID_116_" d="M370.2,186.6v-61.8c0-2.6,2-4.6,4.6-4.6h7.4c2.6,0,4.6,2,4.6,4.6v61.8c0,2.6-2,4.6-4.6,4.6h-7.4
					C372.2,191.2,370.2,189,370.2,186.6z"/>
			</defs>
			<use xlink:href="#SVGID_116_"  style="overflow:visible;fill:#FFFFFF;"/>
			<clipPath id="SVGID_117_">
				<use xlink:href="#SVGID_116_"  style="overflow:visible;"/>
			</clipPath>
			<polygon class="st58" points="381.2,191.2 370.2,174.6 370.2,173.4 382.2,191.2 			"/>
		</g>
		<g>
			<defs>
				<path id="SVGID_118_" d="M370.2,186.6v-61.8c0-2.6,2-4.6,4.6-4.6h7.4c2.6,0,4.6,2,4.6,4.6v61.8c0,2.6-2,4.6-4.6,4.6h-7.4
					C372.2,191.2,370.2,189,370.2,186.6z"/>
			</defs>
			<use xlink:href="#SVGID_118_"  style="overflow:visible;fill:#FFFFFF;"/>
			<clipPath id="SVGID_119_">
				<use xlink:href="#SVGID_118_"  style="overflow:visible;"/>
			</clipPath>
			<polygon class="st59" points="380.4,191.2 370.2,176 370.2,174.6 381.2,191.2 			"/>
		</g>
		<g>
			<defs>
				<path id="SVGID_120_" d="M370.2,186.6v-61.8c0-2.6,2-4.6,4.6-4.6h7.4c2.6,0,4.6,2,4.6,4.6v61.8c0,2.6-2,4.6-4.6,4.6h-7.4
					C372.2,191.2,370.2,189,370.2,186.6z"/>
			</defs>
			<use xlink:href="#SVGID_120_"  style="overflow:visible;fill:#FFFFFF;"/>
			<clipPath id="SVGID_121_">
				<use xlink:href="#SVGID_120_"  style="overflow:visible;"/>
			</clipPath>
			<polygon class="st60" points="379.4,191.2 370.2,177.4 370.2,176 380.4,191.2 			"/>
		</g>
		<g>
			<defs>
				<path id="SVGID_122_" d="M370.2,186.6v-61.8c0-2.6,2-4.6,4.6-4.6h7.4c2.6,0,4.6,2,4.6,4.6v61.8c0,2.6-2,4.6-4.6,4.6h-7.4
					C372.2,191.2,370.2,189,370.2,186.6z"/>
			</defs>
			<use xlink:href="#SVGID_122_"  style="overflow:visible;fill:#FFFFFF;"/>
			<clipPath id="SVGID_123_">
				<use xlink:href="#SVGID_122_"  style="overflow:visible;"/>
			</clipPath>
			<polygon class="st61" points="378.6,191.2 370.2,178.6 370.2,177.4 379.4,191.2 			"/>
		</g>
		<g>
			<defs>
				<path id="SVGID_124_" d="M370.2,186.6v-61.8c0-2.6,2-4.6,4.6-4.6h7.4c2.6,0,4.6,2,4.6,4.6v61.8c0,2.6-2,4.6-4.6,4.6h-7.4
					C372.2,191.2,370.2,189,370.2,186.6z"/>
			</defs>
			<use xlink:href="#SVGID_124_"  style="overflow:visible;fill:#FFFFFF;"/>
			<clipPath id="SVGID_125_">
				<use xlink:href="#SVGID_124_"  style="overflow:visible;"/>
			</clipPath>
			<polygon class="st62" points="377.6,191.2 370.2,180 370.2,178.6 378.6,191.2 			"/>
		</g>
		<g>
			<defs>
				<path id="SVGID_126_" d="M370.2,186.6v-61.8c0-2.6,2-4.6,4.6-4.6h7.4c2.6,0,4.6,2,4.6,4.6v61.8c0,2.6-2,4.6-4.6,4.6h-7.4
					C372.2,191.2,370.2,189,370.2,186.6z"/>
			</defs>
			<use xlink:href="#SVGID_126_"  style="overflow:visible;fill:#FFFFFF;"/>
			<clipPath id="SVGID_127_">
				<use xlink:href="#SVGID_126_"  style="overflow:visible;"/>
			</clipPath>
			<polygon class="st63" points="376.8,191.2 370.2,181.4 370.2,180 377.6,191.2 			"/>
		</g>
		<g>
			<defs>
				<path id="SVGID_128_" d="M370.2,186.6v-61.8c0-2.6,2-4.6,4.6-4.6h7.4c2.6,0,4.6,2,4.6,4.6v61.8c0,2.6-2,4.6-4.6,4.6h-7.4
					C372.2,191.2,370.2,189,370.2,186.6z"/>
			</defs>
			<use xlink:href="#SVGID_128_"  style="overflow:visible;fill:#FFFFFF;"/>
			<clipPath id="SVGID_129_">
				<use xlink:href="#SVGID_128_"  style="overflow:visible;"/>
			</clipPath>
			<polygon class="st64" points="375.8,191.2 370.2,182.6 370.2,181.4 376.8,191.2 			"/>
		</g>
		<g>
			<defs>
				<path id="SVGID_130_" d="M370.2,186.6v-61.8c0-2.6,2-4.6,4.6-4.6h7.4c2.6,0,4.6,2,4.6,4.6v61.8c0,2.6-2,4.6-4.6,4.6h-7.4
					C372.2,191.2,370.2,189,370.2,186.6z"/>
			</defs>
			<use xlink:href="#SVGID_130_"  style="overflow:visible;fill:#FFFFFF;"/>
			<clipPath id="SVGID_131_">
				<use xlink:href="#SVGID_130_"  style="overflow:visible;"/>
			</clipPath>
			<polygon class="st65" points="375,191.2 370.2,184 370.2,182.6 375.8,191.2 			"/>
		</g>
		<g>
			<defs>
				<path id="SVGID_132_" d="M370.2,186.6v-61.8c0-2.6,2-4.6,4.6-4.6h7.4c2.6,0,4.6,2,4.6,4.6v61.8c0,2.6-2,4.6-4.6,4.6h-7.4
					C372.2,191.2,370.2,189,370.2,186.6z"/>
			</defs>
			<use xlink:href="#SVGID_132_"  style="overflow:visible;fill:#FFFFFF;"/>
			<clipPath id="SVGID_133_">
				<use xlink:href="#SVGID_132_"  style="overflow:visible;"/>
			</clipPath>
			<polygon class="st66" points="374,191.2 370.2,185.4 370.2,184 375,191.2 			"/>
		</g>
		<g>
			<defs>
				<path id="SVGID_134_" d="M370.2,186.6v-61.8c0-2.6,2-4.6,4.6-4.6h7.4c2.6,0,4.6,2,4.6,4.6v61.8c0,2.6-2,4.6-4.6,4.6h-7.4
					C372.2,191.2,370.2,189,370.2,186.6z"/>
			</defs>
			<use xlink:href="#SVGID_134_"  style="overflow:visible;fill:#FFFFFF;"/>
			<clipPath id="SVGID_135_">
				<use xlink:href="#SVGID_134_"  style="overflow:visible;"/>
			</clipPath>
			<polygon class="st67" points="373.2,191.2 370.2,186.6 370.2,185.4 374,191.2 			"/>
		</g>
		<g>
			<defs>
				<path id="SVGID_136_" d="M370.2,186.6v-61.8c0-2.6,2-4.6,4.6-4.6h7.4c2.6,0,4.6,2,4.6,4.6v61.8c0,2.6-2,4.6-4.6,4.6h-7.4
					C372.2,191.2,370.2,189,370.2,186.6z"/>
			</defs>
			<use xlink:href="#SVGID_136_"  style="overflow:visible;fill:#FFFFFF;"/>
			<clipPath id="SVGID_137_">
				<use xlink:href="#SVGID_136_"  style="overflow:visible;"/>
			</clipPath>
			<polygon class="st68" points="372.2,191.2 370.2,188 370.2,186.6 373.2,191.2 			"/>
		</g>
		<g>
			<defs>
				<path id="SVGID_138_" d="M370.2,186.6v-61.8c0-2.6,2-4.6,4.6-4.6h7.4c2.6,0,4.6,2,4.6,4.6v61.8c0,2.6-2,4.6-4.6,4.6h-7.4
					C372.2,191.2,370.2,189,370.2,186.6z"/>
			</defs>
			<use xlink:href="#SVGID_138_"  style="overflow:visible;fill:#FFFFFF;"/>
			<clipPath id="SVGID_139_">
				<use xlink:href="#SVGID_138_"  style="overflow:visible;"/>
			</clipPath>
			<polygon class="st69" points="370.2,188 372.2,191.2 370.2,191.2 			"/>
		</g>
	</g>
</g>
<g>
	<path class="st0" d="M516.4,492.8h-276c-25,0-45.4-22-45.4-49c0-25.6,18.4-46.8,41.6-48.8V273c0-50.6,38-92,84.6-92h114.4
		c46.6,0,84.6,41.2,84.6,92v122c23.2,2,41.6,23.2,41.6,48.8C561.8,470.8,541.6,492.8,516.4,492.8z M240.4,415
		c-14,0-25.4,13-25.4,28.8s11.4,28.8,25.4,28.8h276c14,0,25.2-13,25.2-28.8S530.2,415,516.4,415H500V273c0-39.6-29-71.8-64.4-71.8
		H321.2c-35.6,0-64.4,32.2-64.4,71.8v142H240.4z"/>
</g>
<path class="st0" d="M529,161.4c-38.4,0-69.6,31.2-69.6,69.6s31.2,69.6,69.6,69.6s69.6-31.2,69.6-69.6S567.4,161.4,529,161.4z
	 M539.8,256.2c0,1.4,0,2.4-0.2,3.2c0,0.6-0.4,1.4-0.8,2.4c-0.4,1-1.2,1.6-2.4,1.8c-1.2,0.4-2.6,0.6-4.6,0.6c-1.8,0-3.4-0.2-4.4-0.6
	c-1.2-0.4-2-1-2.4-1.8s-0.8-1.6-0.8-2.4s-0.2-1.8-0.2-3.2V224l-1.2,1c-2.4,1.8-4.6,2.8-6.2,2.8c-1.8,0-3.6-1-5.2-2.8
	c-2.2-2.4-3.2-4.4-3.2-6.2c0-1.6,1-3.4,3.2-5.2l14.8-13.4l0.2-0.2c1.6-1.6,3.4-2.4,5.4-2.4c1.6,0,2.8,0.2,3.8,0.4
	c1,0.4,1.8,0.6,2.4,1s1,1,1.2,1.8s0.4,1.6,0.4,2.2s0,1.4,0,2.6v50.6H539.8z"/>
</svg>
