<?xml version="1.0" encoding="utf-8"?>
<!-- Generator: Adobe Illustrator 23.0.1, SVG Export Plug-In . SVG Version: 6.00 Build 0)  -->
<svg version="1.1" id="Layer_1" xmlns="http://www.w3.org/2000/svg" xmlns:xlink="http://www.w3.org/1999/xlink" x="0px" y="0px"
	 viewBox="0 0 792 612" style="enable-background:new 0 0 792 612;" xml:space="preserve">
<style type="text/css">
	.st0{fill:#FFFFFF;}
</style>
<g>
	<path class="st0" d="M380.5,519l-74.8-20l-2-4.4c-4.2-10-11.2-32.8-7.8-48.6c0-0.2-0.4-1.2-1.4-2.2L259.7,409c-1-1-2-1.4-2.2-1.4
		l0,0c-15.6,3.4-38.6-3.6-48.4-7.8l-4.4-2l-20-75l3-3.8c6.4-8.6,22.8-26.2,38.2-31c0.2,0,0.8-0.8,1.2-2.2l12.6-47.4
		c0.4-1.4,0.2-2.4,0-2.6c-10.8-11.8-16.2-35.2-17.6-45.8l-0.6-4.8l54.8-54.8l4.8,0.6c10.8,1.4,34,6.6,46,17.6c0.2,0,1.2,0.2,2.6,0
		l47.4-12.8c1.4-0.4,2.2-1,2.4-1.2c4.8-15.2,22.4-31.6,31-38l3.8-3l74.8,20l2,4.4c4.2,10,11.2,32.8,7.8,48.6c0,0.2,0.4,1.2,1.4,2.2
		l34.6,34.6c1,1,2,1.4,2.2,1.4l0,0c15.6-3.4,38.6,3.6,48.4,7.8l4.4,2l20,74.8l-3,3.8c-6.4,8.6-22.8,26.2-38.2,31
		c-0.2,0-0.8,0.8-1.2,2.2l-12.6,47.4c-0.4,1.4-0.2,2.4,0,2.6c10.8,11.8,16.2,35.2,17.6,45.8l0.6,4.8l-54.8,54.8l-4.8-0.6
		c-10.8-1.4-34-6.6-46-17.6c-0.2,0-1.2-0.2-2.6,0l-47.4,12.8c-1.4,0.4-2.2,1-2.4,1.2c-4.8,15.2-22.4,31.6-31,38L380.5,519z
		 M320.5,482.2l55.8,15c8.6-7.4,18-18,20.2-25.2c2.2-7,8.2-12.4,16.2-14.6l47.4-12.8c8-2.2,16-0.4,21.4,4.6c5.6,5,19,9.6,30.2,11.6
		l40.8-40.8c-2-11.2-6.6-24.6-11.6-30s-6.6-13.4-4.6-21.4l12.6-47.4c2.2-8,7.6-14,14.6-16.2c7.2-2.2,17.8-11.6,25.2-20.2l-14.8-55.6
		c-10.8-3.8-24.6-6.6-32-5c-7.2,1.6-15-1-20.8-6.8l-34.8-34.6c-5.8-5.8-8.4-13.6-6.8-20.8c1.6-7.4-1.2-21.2-5-32l-55.6-15
		c-8.6,7.4-18,18-20.2,25.2c-2.2,7-8.2,12.4-16.2,14.6l-47.4,12.8c-8,2.2-16,0.4-21.4-4.6c-5.4-5-19-9.6-30.2-11.6l-40.8,40.8
		c2,11.2,6.6,24.6,11.6,30c5,5.4,6.6,13.4,4.6,21.4L246.3,291c-2.2,8-7.6,14-14.6,16.2c-7.2,2.2-17.8,11.6-25.2,20.2l14.8,55.8
		c10.8,3.8,24.6,6.6,32,5c7.2-1.6,14.8,1,20.8,6.8l34.8,34.8c5.8,5.8,8.4,13.6,6.8,20.6C313.9,457.6,316.7,471.6,320.5,482.2z
		 M397.5,416.2c-29.4,0-57-11.4-77.8-32.2c-20.8-20.8-32.2-48.4-32.2-77.8s11.4-57,32.2-77.8c42.8-42.8,112.6-42.8,155.6,0l0,0
		c42.8,42.8,42.8,112.6,0,155.6C454.5,404.8,426.9,416.2,397.5,416.2z M397.5,216.4c-23,0-46,8.8-63.6,26.4
		c-17,17-26.4,39.6-26.4,63.6c0,24,9.4,46.6,26.4,63.6c34,34,93.2,34,127.2,0c35-35,35-92.2,0-127.2
		C443.5,225,420.5,216.4,397.5,216.4z"/>
</g>
</svg>
