<?xml version="1.0" encoding="utf-8"?>
<!-- Generator: Adobe Illustrator 23.0.1, SVG Export Plug-In . SVG Version: 6.00 Build 0)  -->
<svg version="1.1" id="Layer_1" xmlns="http://www.w3.org/2000/svg" xmlns:xlink="http://www.w3.org/1999/xlink" x="0px" y="0px"
	 viewBox="0 0 146.5 272.7" style="enable-background:new 0 0 146.5 272.7;" xml:space="preserve">
<style type="text/css">
	.st0{fill:#F7FCFE;}
	.st1{fill:#FFFFFF;}
	.st2{opacity:0.39;fill:#747B8D;enable-background:new    ;}
	.st3{fill:#ECF5FC;}
	.st4{fill:#27363D;}
	.st5{opacity:0.44;fill:none;stroke:url(#SVGID_1_);stroke-width:0.5587;stroke-miterlimit:10;enable-background:new    ;}
	.st6{fill:#2E2F32;}
	.st7{fill:#41434A;}
	.st8{fill:url(#SVGID_2_);}
	.st9{fill:#686B76;}
	.st10{fill:none;stroke:#FFFFFF;stroke-width:0.1146;stroke-miterlimit:10;}
	.st11{fill:#5F6371;}
	.st12{fill:#767A89;}
	.st13{opacity:0.15;}
	.st14{fill:url(#SVGID_3_);}
	.st15{fill:#F4F4F4;}
	.st16{opacity:0.34;fill:#FFFFFF;enable-background:new    ;}
	.st17{opacity:0.4;fill:#F5F7FC;enable-background:new    ;}
	.st18{fill:#C4CBD3;}
	.st19{opacity:0.58;}
	.st20{fill:#F6FCFE;}
	.st21{opacity:0.67;fill:#ECF5FC;enable-background:new    ;}
	.st22{font-family:'Lato-Regular';}
	.st23{font-size:3.8091px;}
</style>
<g>
	<g>
		<g>
			<g>
				<path class="st0" d="M129.4,272.6H21.3c-9.3,0-16.8-7.5-16.8-16.8V17.4C4.5,8.1,12,0.6,21.3,0.6h108.2c9.3,0,16.8,7.5,16.8,16.8
					v238.5C146.2,265.1,138.7,272.6,129.4,272.6z"/>
				<path class="st1" d="M129.6,0.6H21.5c-9.3,0-16.8,7.5-16.8,16.8V19c0-9.3,7.5-16.8,16.8-16.8h108.1c9.3,0,16.8,7.5,16.8,16.8
					v-1.6C146.4,8.1,138.9,0.6,129.6,0.6z"/>
				<path class="st2" d="M129.6,272.6H21.5c-9.3,0-16.8-7.5-16.8-16.8v-1.6c0,9.3,7.5,16.8,16.8,16.8h108.1
					c9.3,0,16.8-7.5,16.8-16.8v1.6C146.4,265.1,138.9,272.6,129.6,272.6z"/>
				<g>
					<path class="st3" d="M129.1,272.7h-108c-9.6,0-17.4-7.8-17.4-17.3V17.3C3.7,7.8,11.5,0,21.1,0h108c9.6,0,17.4,7.8,17.4,17.3
						v238.1C146.5,265,138.7,272.7,129.1,272.7z M21.1,1.1c-9,0-16.2,7.3-16.2,16.2v238.1c0,8.9,7.3,16.2,16.2,16.2h108
						c9,0,16.2-7.3,16.2-16.2V17.3c0-8.9-7.3-16.2-16.2-16.2L21.1,1.1L21.1,1.1z"/>
				</g>
				<rect x="6.8" y="31.5" class="st4" width="137.4" height="212.8"/>
				
					<linearGradient id="SVGID_1_" gradientUnits="userSpaceOnUse" x1="6.3127" y1="134.95" x2="143.9914" y2="134.95" gradientTransform="matrix(1 0 0 -1 0 273.08)">
					<stop  offset="0.1603" style="stop-color:#BDBEC0"/>
					<stop  offset="0.1834" style="stop-color:#BDBEC0"/>
					<stop  offset="0.8015" style="stop-color:#424143"/>
				</linearGradient>
				<rect x="6.6" y="32" class="st5" width="137.1" height="212.3"/>
				<g>
					<path class="st6" d="M87.1,19.4H65.5c-0.4,0-0.8-0.3-0.8-0.8v-1c0-0.4,0.3-0.8,0.8-0.8h21.6c0.4,0,0.8,0.3,0.8,0.8v1
						C87.9,19.1,87.5,19.4,87.1,19.4z"/>
					<path class="st7" d="M87.1,19.4H65.5c-0.4,0-0.8-0.3-0.8-0.8v-1c0-0.4,0.3-0.8,0.8-0.8h21.6c0.4,0,0.8,0.3,0.8,0.8v1
						C87.9,19.1,87.5,19.4,87.1,19.4z"/>
					
						<linearGradient id="SVGID_2_" gradientUnits="userSpaceOnUse" x1="76.1662" y1="263.5687" x2="76.3501" y2="251.4315" gradientTransform="matrix(1 0 0 -1 0 273.08)">
						<stop  offset="0.1985" style="stop-color:#424143"/>
						<stop  offset="0.8166" style="stop-color:#BDBEC0"/>
						<stop  offset="0.8397" style="stop-color:#BDBEC0"/>
					</linearGradient>
					<path class="st8" d="M87.1,19.4H65.5c-0.4,0-0.8-0.3-0.8-0.8v-1c0-0.4,0.3-0.8,0.8-0.8h21.6c0.4,0,0.8,0.3,0.8,0.8v1
						C87.9,19.1,87.5,19.4,87.1,19.4z"/>
					<path class="st9" d="M87.1,16.9H65.5c-0.4,0-0.7,0.4-0.7,0.8V18c0-0.4,0.3-0.8,0.7-0.8h21.7c0.4,0,0.7,0.4,0.7,0.8v-0.4
						C87.9,17.2,87.6,16.9,87.1,16.9z"/>
					<path class="st9" d="M87.1,19.4H65.5c-0.4,0-0.7-0.4-0.7-0.8V19c0,0.4,0.3,0.8,0.7,0.8h21.7c0.4,0,0.7-0.4,0.7-0.8v-0.4
						C87.9,19.1,87.6,19.4,87.1,19.4z"/>
				</g>
				<path class="st10" d="M69.1,14.6"/>
				<g>
					<path class="st11" d="M90.7,262.7H63.3c-1.2,0-2.1-1-2.1-2.1v-2.1c0-1.2,1-2.1,2.1-2.1h27.4c1.2,0,2.1,1,2.1,2.1v2.1
						C92.8,261.8,91.9,262.7,90.7,262.7z"/>
					<path class="st12" d="M90.7,262.9H63.3c-1.3,0-2.3-1-2.3-2.3v-2.1c0-1.3,1-2.3,2.3-2.3h27.4c1.3,0,2.3,1,2.3,2.3v2.1
						C93,261.8,92,262.9,90.7,262.9z M63.3,256.3c-1.1,0-2,1-2,2.1v2.1c0,1.1,0.9,2,2,2h27.4c1.1,0,2-0.9,2-2v-2.1c0-1.1-0.9-2-2-2
						L63.3,256.3z"/>
				</g>
				<g class="st13">
					<path class="st6" d="M38.2,258.1h-4.2l0.5-0.4c0.1-0.1,0.1-0.2,0-0.2c-0.1-0.1-0.2-0.1-0.2,0l-1,0.8l1,0.9c0,0,0.1,0,0.1,0
						c0,0,0.1,0,0.1,0c0.1-0.1,0.1-0.2,0-0.2l-0.5-0.5h4.2c0.2,0,0.4,0.4,0.4,1v1.1c0,0.5-0.2,1-0.4,1h-7.6c-0.1,0-0.2,0.1-0.2,0.2
						s0.1,0.2,0.2,0.2h7.6c0.4,0,0.7-0.6,0.7-1.3v-1.1C38.9,258.6,38.6,258.1,38.2,258.1z"/>
				</g>
				<g class="st13">
					<g>
						<path class="st6" d="M121.4,261.9h-4v-3.3c0-0.1,0.1-0.1,0.1-0.1c0.1,0,0.1,0.1,0.1,0.1v3h3.4v-3c0-0.1,0.1-0.1,0.1-0.1
							c0.1,0,0.1,0.1,0.1,0.1L121.4,261.9L121.4,261.9z"/>
					</g>
					<g>
						<path class="st6" d="M123,258.8h-2.4c-0.1,0-0.1-0.1-0.1-0.1s0.1-0.1,0.1-0.1h1.8l-3-3.2l-3,3.2h1.7c0.1,0,0.1,0.1,0.1,0.1
							s-0.1,0.1-0.1,0.1h-2.4l3.6-3.9L123,258.8z"/>
					</g>
				</g>
				<g>
					<g>
						<path class="st1" d="M99.5,11.7c0-1.6,1.2-2.9,2.8-2.9s2.8,1.3,2.8,2.9s-1.2,2.9-2.8,2.9C100.7,14.7,99.5,13.4,99.5,11.7z"/>
						
							<radialGradient id="SVGID_3_" cx="316.3871" cy="506.0361" r="4.2583" fx="315.3898" fy="501.8963" gradientTransform="matrix(0.9324 0.2026 0.1929 -0.9793 -290.3665 443.2023)" gradientUnits="userSpaceOnUse">
							<stop  offset="0" style="stop-color:#1E2756"/>
							<stop  offset="0.2462" style="stop-color:#1E2351"/>
							<stop  offset="0.5704" style="stop-color:#002B3D"/>
							<stop  offset="0.9925" style="stop-color:#2C2A66"/>
						</radialGradient>
						<path class="st14" d="M99.9,11.2c0.3-1.3,1.5-2.2,2.8-1.9c1.3,0.3,2.1,1.6,1.8,2.9c-0.3,1.3-1.5,2.2-2.8,1.9
							C100.5,13.9,99.7,12.6,99.9,11.2z"/>
						<path class="st15" d="M101.9,10.6c0,0,0.1,0.7,1.2,0.8c1.1,0.1,1.1-0.4,0.8-0.8c-0.3-0.4-0.9-1.1-1.5-0.9
							C101.7,9.9,101.9,10.6,101.9,10.6z"/>
					</g>
					<path class="st16" d="M100.9,10.6c0.7-0.9,1.7-1.4,2.9-0.7c-0.4-0.4-1-0.6-1.6-0.6c-1.3,0-2.4,1.1-2.4,2.5
						c0,0.9,0.4,1.7,1.1,2.1C100.5,13.2,100.1,11.7,100.9,10.6z"/>
				</g>
				<path class="st17" d="M90.6,256.3H63.4c-1.2,0-2.1,1-2.1,2.1v0.3c0-1.2,1-2.1,2.1-2.1h27.1c1.2,0,2.1,1,2.1,2.1v-0.3
					C92.7,257.3,91.8,256.3,90.6,256.3z"/>
			</g>
			<path class="st3" d="M3.7,40c0,0-3.3,1.2-3.5,2.1C-0.1,43.7,0,49.5,0,49.8c0,1.3,3.7,6.1,3.7,6.1L3.7,40L3.7,40z"/>
			<path class="st3" d="M3.7,67.3c0,0-3.5,1.6-3.7,2.9c-0.1,1.7,0,7.3,0,7.6c0,3.5,3.7,5,3.7,5V67.3z"/>
		</g>
		<g>
			<g>
				<rect x="11.7" y="36.5" class="st18" width="1.3" height="4.1"/>
				<rect x="13.8" y="37.7" class="st18" width="1.1" height="2.9"/>
				<rect x="15.8" y="38.6" class="st18" width="1" height="2"/>
			</g>
		</g>
		<g class="st19">
			<polygon class="st20" points="138,38.1 137.4,38.1 137.4,37.3 133.7,37.3 133.7,39.8 137.4,39.8 137.4,38.9 138,38.9 			"/>
			<rect x="136.4" y="37.5" class="st3" width="0.6" height="1.9"/>
		</g>
	</g>
	<text transform="matrix(1 0 0 1 69.9078 39.1671)" class="st21 st22 st23">20 : 45</text>
</g>
</svg>
